<svg width="1097" height="378" viewBox="0 0 1097 378" fill="none" xmlns="http://www.w3.org/2000/svg">
<path d="M211.143 176.242C210.721 176.9 210.337 177.583 209.993 178.286C204.734 190.737 199.446 203.189 194.282 215.64C193.154 218.372 191.484 219.596 188.496 219.625C174.975 219.742 161.454 220.013 147.933 220.211C144.271 220.262 142.616 219.215 141.627 215.765C140.162 210.594 138.917 205.349 137.569 200.142C136.904 197.288 135.98 194.5 134.808 191.814C131.534 198.911 128.267 206.009 124.641 213.875C123.235 211.627 122.18 210.008 121.199 208.345C119.734 205.906 118.46 203.379 116.943 201.021C115.164 198.201 113.362 198.237 111.553 201.065C110.871 202.141 110.491 203.408 109.773 204.456C109.297 205.144 108.374 206.126 107.832 206.023C107.38 205.886 106.964 205.652 106.611 205.339C106.259 205.025 105.978 204.639 105.788 204.207C104.323 200.464 103.144 196.611 101.665 192.876C101.137 191.543 100.046 189.47 99.196 189.463C97.922 189.463 96.369 190.737 95.402 191.865C92.099 195.732 89.001 199.783 85.829 203.76L85.009 203.665L80.79 185.031C79.112 187.558 77.421 190.078 75.758 192.62C74.557 194.451 73.421 196.326 72.198 198.15C70.675 200.413 70.147 200.347 68.895 198.003C67.936 196.034 66.819 194.145 65.555 192.356C63.057 189.096 60.296 189.514 58.047 192.825C56.136 195.479 53.983 197.95 51.616 200.208C51.016 200.808 49.639 200.64 48.621 200.823C48.76 199.834 48.621 198.684 49.06 197.893C59.314 179.765 69.649 161.688 79.889 143.56C81.31 141.033 82.291 138.257 83.551 135.628C83.904 135.043 84.316 134.495 84.782 133.995C85.294 134.441 85.997 134.786 86.247 135.35C87.067 136.968 87.711 138.682 88.444 140.345C90.246 144.442 92.055 148.534 93.871 152.621L95.16 152.416L95.739 148.578C96.411 147.68 96.997 146.721 97.49 145.714C100.515 137.657 103.474 129.644 106.469 121.616C106.55 121.404 106.858 121.272 107.487 120.759C111.15 126.582 113.479 133.423 120.386 137.32C121.067 135.38 121.632 133.401 122.078 131.394C123.638 122.019 125.081 112.622 126.575 103.239C126.658 102.329 126.857 101.433 127.168 100.573C127.901 98.94 129.3 98.28 130.64 99.635C131.926 101.021 132.998 102.591 133.819 104.294C136.632 109.809 139.305 115.405 142.059 120.957C142.537 121.722 143.063 122.456 143.634 123.154C145.575 110.307 147.347 98.068 149.296 85.858C152.621 64.935 156.012 44.016 159.469 23.1021C160.136 19.0443 160.934 15.0012 161.784 10.9947C161.989 10.0645 162.897 9.29542 163.476 8.45312C164.347 9.12703 165.614 9.62502 166.017 10.5186C166.809 12.3597 167.372 14.2906 167.695 16.2683C169.218 24.9918 170.624 33.723 172.089 42.453C173.583 51.375 175.073 60.298 176.557 69.224L183.281 109.223C184.824 118.413 186.372 127.6 187.925 136.785C188.013 137.298 188.137 137.796 188.247 138.301L188.98 138.455C191.133 131.863 193.418 125.271 195.418 118.628C198.89 107.084 202.171 95.475 205.577 83.91C205.917 83.111 206.344 82.352 206.851 81.647C207.584 82.13 208.616 82.445 208.997 83.111C209.912 84.543 210.534 86.141 210.828 87.814C212 99.445 213.026 111.091 214.051 122.729C214.784 130.552 215.428 138.367 216.124 146.168C216.157 146.992 216.424 147.79 216.893 148.468C217.787 146.475 218.753 144.505 219.559 142.469C223.177 133.291 226.737 124.092 230.363 114.914C231.044 113.221 231.842 111.576 232.751 109.992C233.996 107.795 235.534 107.729 236.457 110.044C237.681 113.281 238.644 116.613 239.335 120.005C242.06 132.398 244.645 144.827 247.334 157.235C247.774 158.733 248.31 160.2 248.938 161.63C249.482 160.951 249.949 160.214 250.329 159.432C252.19 153.324 253.991 147.208 255.815 141.121C258.013 133.68 260.21 126.223 262.517 118.826C262.817 117.888 263.982 116.628 264.773 116.628C265.564 116.628 266.839 117.785 267.183 118.701C268.026 121.112 268.709 123.576 269.226 126.077C272.654 141.041 276.089 155.99 279.415 170.976C281.29 179.436 282.952 187.939 284.718 196.421C284.867 196.842 285.043 197.253 285.245 197.651C288.424 194.531 291.449 191.587 294.452 188.613C297.557 185.522 300.648 182.414 303.725 179.289C305.19 177.788 306.369 178.271 306.581 180.021C306.747 181.419 306.358 182.826 305.497 183.94C299.161 190.532 292.687 196.963 286.19 203.394C284.564 204.998 283.502 204.712 282.93 202.434C281.392 196.326 280.001 190.173 278.609 184.035C274.815 167.56 271.028 151.09 267.249 134.624C266.766 132.115 266.03 129.661 265.051 127.3C264.611 127.998 264.234 128.733 263.923 129.497C261.462 137.518 259.009 145.538 256.599 153.58C255.039 158.839 253.618 164.135 252.087 169.394C251.655 170.859 251.274 172.565 249.157 172.389C247.041 172.214 246.499 170.705 246.125 169.013C243.056 155.192 240.046 141.356 236.889 127.549C236.244 124.736 235.065 122.041 233.798 118.313C232.238 120.964 230.736 122.869 229.916 125.022C226.137 134.917 222.592 144.886 218.929 154.825C218.329 156.444 217.721 158.693 215.619 158.033C214.366 157.638 212.916 155.675 212.769 154.283C211.436 141.956 210.426 129.593 209.224 117.251C208.492 109.926 207.628 102.602 206.785 94.984C206.397 95.424 205.928 95.717 205.811 96.12C202.017 109.384 198.304 122.671 194.466 135.921C193.228 140.206 191.704 144.41 190.247 148.629C189.904 149.338 189.479 150.004 188.98 150.614L188.057 150.775C187.324 148.944 186.174 147.179 185.815 145.274C183.567 133.255 181.465 121.206 179.34 109.157C177.421 98.273 175.634 87.36 173.62 76.49C170.851 61.497 167.929 46.526 165.065 31.547C164.912 30.9571 164.729 30.3752 164.516 29.8039C161.125 35.356 160.451 41.435 159.535 47.383C156.539 66.976 153.756 86.598 150.812 106.205C149.75 113.252 148.483 120.261 147.289 127.293C147.186 128.477 146.909 129.639 146.468 130.742C146.034 131.694 145.246 132.437 144.271 132.815C143.663 132.954 142.403 132.032 142.074 131.284C140.609 128.237 139.481 125.051 138.14 121.953C136.507 118.181 134.72 114.497 131.27 111.757C128.684 114.182 128.472 117.346 127.923 120.334C125.55 133.262 123.33 146.226 120.862 159.154C119.302 167.321 117.2 175.378 115.786 183.566C115.36 186.62 115.682 189.732 116.724 192.634C118.24 197.029 120.562 201.101 122.583 205.306C122.903 205.782 123.268 206.226 123.675 206.631C125.279 203.452 126.758 200.552 128.201 197.629C129.827 194.363 131.329 191.037 133.086 187.822C133.716 186.672 134.947 185.844 135.906 184.892C136.741 186.174 137.987 187.353 138.338 188.76C140.286 196.465 142 204.214 143.81 211.963C144.337 214.278 145.655 215.362 148.05 215.355C159.931 215.355 171.811 215.355 183.691 215.355C188.35 215.355 191.697 213.655 193.513 208.763C197.234 198.757 201.394 188.906 205.504 179.055C206.573 176.33 207.957 173.739 209.627 171.335C211.495 168.771 213.289 169.137 214.308 172.118C218.805 184.965 223.258 197.827 227.667 210.704C229.301 215.487 229.279 215.487 234.413 215.465C250.857 215.413 267.307 215.465 283.751 215.465C293.807 215.465 303.856 215.377 313.913 215.465C316.843 215.465 318.308 214.446 318.491 211.465C318.894 204.449 319.729 197.439 319.736 190.422C319.736 182.211 319.274 173.979 318.63 165.79C317.685 153.822 314.059 142.506 309.379 131.541C303.888 118.569 296.666 106.4 287.911 95.365C276.875 81.44 263.341 69.693 248 60.728C232.46 51.634 215.54 45.135 197.908 41.486C191.755 40.205 185.456 39.67 179.223 38.652C178.103 38.469 176.33 37.744 176.184 37.004C175.854 35.057 175.924 33.063 176.389 31.144C176.491 30.7122 178.506 30.4998 179.633 30.5291C191.799 30.8513 203.416 33.788 214.974 37.465C231.445 42.729 247.027 50.451 261.191 60.369C282.224 74.842 299.411 94.226 311.262 116.841C319.66 132.914 325.394 150.245 328.24 168.156C329.844 177.927 329.705 187.793 328.745 197.673C327.791 208.413 325.829 219.038 322.885 229.41C318.217 245.506 310.798 260.671 300.956 274.236C292.687 285.721 283.143 296.026 271.805 304.545C252.549 319.003 231.601 330.041 208.162 336.106C196.992 338.93 185.553 340.56 174.038 340.969C166.574 341.284 159.066 341.401 151.61 340.969C146.483 340.676 141.356 339.395 136.273 338.362C126.714 336.421 117.068 334.89 107.876 331.316C90.158 324.431 73.363 315.971 58.479 303.937C41.342 290.138 27.2211 272.967 16.9937 253.486C8.97311 238.149 3.72621 221.516 1.49511 204.353C-1.63219 181.973 0.643219 159.169 8.13112 137.847C15.4717 116.697 27.3858 97.425 43.025 81.405C58.712 65.08 77.533 52.09 98.361 43.215C114.072 36.535 130.347 31.789 147.486 30.5437C148.827 30.4485 151.266 30.7049 151.39 31.225C151.809 33.252 151.829 35.342 151.449 37.377C151.354 37.927 149.676 38.498 148.688 38.586C133.841 39.884 119.242 43.208 105.297 48.467C89.85 54.221 75.515 62.604 62.925 73.245C50.796 83.5 39.6995 94.721 31.3716 108.344C23.6394 120.778 17.7202 134.252 13.7929 148.358C12.4965 153.119 11.0535 157.88 10.0794 162.677C7.14961 177.106 7.88201 191.579 9.96951 206.031C12.093 220.807 16.5661 235.149 23.2195 248.513C32.0521 266.212 44.357 281.953 59.402 294.796C74.154 307.511 90.766 316.923 108.718 323.867C123.777 329.726 139.627 332.51 155.844 333.125C173.84 333.806 191.668 332.781 209.136 328.181C222.994 324.519 235.863 318.622 248.264 311.335C267.573 300.029 284.143 284.594 296.788 266.135C305.78 253.314 312.243 238.896 315.832 223.653C316.403 221.207 315.832 220.394 313.349 220.387C298.641 220.387 283.934 220.387 269.226 220.387C256.892 220.387 244.558 220.387 232.223 220.387C228.561 220.387 227.492 219.471 226.202 215.992C222.665 206.47 219.046 197.022 215.567 187.5C214.835 185.551 214.666 183.405 214.058 181.406C213.516 179.611 212.733 177.89 212.059 176.139L211.143 176.242ZM108.696 131.665C107.839 132.881 106.931 133.789 106.499 134.881C104.521 139.693 102.749 144.586 100.756 149.391C99.65 152.288 98.295 155.084 96.706 157.748C94.648 160.956 92.56 160.678 90.971 157.206C89.044 152.994 87.221 148.731 85.155 144.022C84.046 145.387 83.009 146.81 82.05 148.285C75.506 159.579 69.017 170.895 62.581 182.233C62.437 182.528 62.367 182.854 62.377 183.182C62.387 183.51 62.477 183.831 62.64 184.116C65.299 186.606 68.067 188.972 71.026 191.565C72.074 190.32 72.879 189.47 73.553 188.532C75.626 185.647 77.574 182.673 79.742 179.838C80.387 178.989 81.574 178.557 82.511 177.927C83.06 178.901 83.668 179.853 84.137 180.856C84.334 181.463 84.467 182.089 84.533 182.724C85.463 187.119 86.4 191.448 87.374 195.996C87.916 195.322 88.451 194.714 88.913 194.062C91.637 190.202 94.259 186.269 97.101 182.497C98.947 180.043 100.361 180.249 101.723 183.039C103.576 186.804 105.297 190.627 107.07 194.429L107.986 194.509C108.799 191.33 109.743 188.174 110.417 184.987C112.834 173.459 115.281 161.937 117.419 150.357C117.692 148.128 117.267 145.868 116.204 143.89C114.109 139.839 111.479 136.097 108.696 131.665Z" fill="#234982"/>
<path d="M211.143 176.242C210.721 176.9 210.337 177.583 209.993 178.286C204.734 190.737 199.446 203.189 194.282 215.64C193.154 218.372 191.484 219.596 188.496 219.625C174.975 219.742 161.454 220.013 147.933 220.211C144.271 220.262 142.616 219.215 141.627 215.765C140.162 210.594 138.917 205.349 137.569 200.142C136.904 197.288 135.98 194.5 134.808 191.814C131.534 198.911 128.267 206.009 124.641 213.875C123.235 211.627 122.18 210.008 121.199 208.345C119.734 205.906 118.46 203.379 116.943 201.021C115.164 198.201 113.362 198.237 111.553 201.065C110.871 202.141 110.491 203.408 109.773 204.456C109.297 205.144 108.374 206.126 107.832 206.023C107.38 205.886 106.964 205.652 106.611 205.339C106.259 205.025 105.978 204.639 105.788 204.207C104.323 200.464 103.144 196.611 101.665 192.876C101.137 191.543 100.046 189.47 99.196 189.463C97.922 189.463 96.369 190.737 95.402 191.865C92.099 195.732 89.001 199.783 85.829 203.76L85.009 203.665L80.79 185.031C79.112 187.558 77.421 190.078 75.758 192.62C74.557 194.451 73.421 196.326 72.198 198.15C70.675 200.413 70.147 200.347 68.895 198.003C67.936 196.034 66.819 194.145 65.555 192.356C63.057 189.096 60.296 189.514 58.047 192.825C56.136 195.479 53.983 197.95 51.616 200.208C51.016 200.808 49.639 200.64 48.621 200.823C48.76 199.834 48.621 198.684 49.06 197.893C59.314 179.765 69.649 161.688 79.889 143.56C81.31 141.033 82.291 138.257 83.551 135.628C83.904 135.043 84.316 134.495 84.782 133.995C85.294 134.441 85.997 134.786 86.247 135.35C87.067 136.968 87.711 138.682 88.444 140.345C90.246 144.442 92.055 148.534 93.871 152.621L95.16 152.416L95.739 148.578C96.411 147.68 96.997 146.721 97.49 145.714C100.515 137.657 103.474 129.644 106.469 121.616C106.55 121.404 106.858 121.272 107.487 120.759C111.15 126.582 113.479 133.423 120.386 137.32C121.067 135.38 121.632 133.401 122.078 131.394C123.638 122.019 125.081 112.622 126.575 103.239C126.658 102.329 126.857 101.433 127.168 100.573C127.901 98.94 129.3 98.28 130.64 99.635C131.926 101.021 132.998 102.591 133.819 104.294C136.632 109.809 139.305 115.405 142.059 120.957C142.537 121.722 143.063 122.456 143.634 123.154C145.575 110.307 147.347 98.068 149.296 85.858C152.621 64.935 156.012 44.016 159.469 23.1021C160.136 19.0443 160.934 15.0012 161.784 10.9947C161.989 10.0645 162.897 9.29542 163.476 8.45312C164.347 9.12703 165.614 9.62502 166.017 10.5186C166.809 12.3597 167.372 14.2906 167.695 16.2683C169.218 24.9918 170.624 33.723 172.089 42.453C173.583 51.375 175.073 60.298 176.557 69.224L183.281 109.223C184.824 118.413 186.372 127.6 187.925 136.785C188.013 137.298 188.137 137.796 188.247 138.301L188.98 138.455C191.133 131.863 193.418 125.271 195.418 118.628C198.89 107.084 202.171 95.475 205.577 83.91C205.917 83.111 206.344 82.352 206.851 81.647C207.584 82.13 208.616 82.445 208.997 83.111C209.912 84.543 210.534 86.141 210.828 87.814C212 99.445 213.026 111.091 214.051 122.729C214.784 130.552 215.428 138.367 216.124 146.168C216.157 146.992 216.424 147.79 216.893 148.468C217.787 146.475 218.753 144.505 219.559 142.469C223.177 133.291 226.737 124.092 230.363 114.914C231.044 113.221 231.842 111.576 232.751 109.992C233.996 107.795 235.534 107.729 236.457 110.044C237.681 113.281 238.644 116.613 239.335 120.005C242.06 132.398 244.645 144.827 247.334 157.235C247.774 158.733 248.31 160.2 248.938 161.63C249.482 160.951 249.949 160.214 250.329 159.432C252.19 153.324 253.991 147.208 255.815 141.121C258.013 133.68 260.21 126.223 262.517 118.826C262.817 117.888 263.982 116.628 264.773 116.628C265.564 116.628 266.839 117.785 267.183 118.701C268.026 121.112 268.709 123.576 269.226 126.077C272.654 141.041 276.089 155.99 279.415 170.976C281.29 179.436 282.952 187.939 284.718 196.421C284.867 196.842 285.043 197.253 285.245 197.651C288.424 194.531 291.449 191.587 294.452 188.613C297.557 185.522 300.648 182.414 303.725 179.289C305.19 177.788 306.369 178.271 306.581 180.021C306.747 181.419 306.358 182.826 305.497 183.94C299.161 190.532 292.687 196.963 286.19 203.394C284.564 204.998 283.502 204.712 282.93 202.434C281.392 196.326 280.001 190.173 278.609 184.035C274.815 167.56 271.028 151.09 267.249 134.624C266.766 132.115 266.03 129.661 265.051 127.3C264.611 127.998 264.234 128.733 263.923 129.497C261.462 137.518 259.009 145.538 256.599 153.58C255.039 158.839 253.618 164.135 252.087 169.394C251.655 170.859 251.274 172.565 249.157 172.389C247.041 172.214 246.499 170.705 246.125 169.013C243.056 155.192 240.046 141.356 236.889 127.549C236.244 124.736 235.065 122.041 233.798 118.313C232.238 120.964 230.736 122.869 229.916 125.022C226.137 134.917 222.592 144.886 218.929 154.825C218.329 156.444 217.721 158.693 215.619 158.033C214.366 157.638 212.916 155.675 212.769 154.283C211.436 141.956 210.426 129.593 209.224 117.251C208.492 109.926 207.628 102.602 206.785 94.984C206.397 95.424 205.928 95.717 205.811 96.12C202.017 109.384 198.304 122.671 194.466 135.921C193.228 140.206 191.704 144.41 190.247 148.629C189.904 149.338 189.479 150.004 188.98 150.614L188.057 150.775C187.324 148.944 186.174 147.179 185.815 145.274C183.567 133.255 181.465 121.206 179.34 109.157C177.421 98.273 175.634 87.36 173.62 76.49C170.851 61.497 167.929 46.526 165.065 31.547C164.912 30.9571 164.729 30.3752 164.516 29.8039C161.125 35.356 160.451 41.435 159.535 47.383C156.539 66.976 153.756 86.598 150.812 106.205C149.75 113.252 148.483 120.261 147.289 127.293C147.186 128.477 146.909 129.639 146.468 130.742C146.034 131.694 145.246 132.437 144.271 132.815C143.663 132.954 142.403 132.032 142.074 131.284C140.609 128.237 139.481 125.051 138.14 121.953C136.507 118.181 134.72 114.497 131.27 111.757C128.684 114.182 128.472 117.346 127.923 120.334C125.55 133.262 123.33 146.226 120.862 159.154C119.302 167.321 117.2 175.378 115.786 183.566C115.36 186.62 115.682 189.732 116.724 192.634C118.24 197.029 120.562 201.101 122.583 205.306C122.903 205.782 123.268 206.226 123.675 206.631C125.279 203.452 126.758 200.552 128.201 197.629C129.827 194.363 131.329 191.037 133.086 187.822C133.716 186.672 134.947 185.844 135.906 184.892C136.741 186.174 137.987 187.353 138.338 188.76C140.286 196.465 142 204.214 143.81 211.963C144.337 214.278 145.655 215.362 148.05 215.355C159.931 215.355 171.811 215.355 183.691 215.355C188.35 215.355 191.697 213.655 193.513 208.763C197.234 198.757 201.394 188.906 205.504 179.055C206.573 176.33 207.957 173.739 209.627 171.335C211.495 168.771 213.289 169.137 214.308 172.118C218.805 184.965 223.258 197.827 227.667 210.704C229.301 215.487 229.279 215.487 234.413 215.465C250.857 215.413 267.307 215.465 283.751 215.465C293.807 215.465 303.856 215.377 313.913 215.465C316.843 215.465 318.308 214.446 318.491 211.465C318.894 204.449 319.729 197.439 319.736 190.422C319.736 182.211 319.274 173.979 318.63 165.79C317.685 153.822 314.059 142.506 309.379 131.541C303.888 118.569 296.666 106.4 287.911 95.365C276.875 81.44 263.341 69.693 248 60.728C232.46 51.634 215.54 45.135 197.908 41.486C191.755 40.205 185.456 39.67 179.223 38.652C178.103 38.469 176.33 37.744 176.184 37.004C175.854 35.057 175.924 33.063 176.389 31.144C176.491 30.7122 178.506 30.4998 179.633 30.5291C191.799 30.8513 203.416 33.788 214.974 37.465C231.445 42.729 247.027 50.451 261.191 60.369C282.224 74.842 299.411 94.226 311.262 116.841C319.66 132.914 325.394 150.245 328.24 168.156C329.844 177.927 329.705 187.793 328.745 197.673C327.791 208.413 325.829 219.038 322.885 229.41C318.217 245.506 310.798 260.671 300.956 274.236C292.687 285.721 283.143 296.026 271.805 304.545C252.549 319.003 231.601 330.041 208.162 336.106C196.992 338.93 185.553 340.56 174.038 340.969C166.574 341.284 159.066 341.401 151.61 340.969C146.483 340.676 141.356 339.395 136.273 338.362C126.714 336.421 117.068 334.89 107.876 331.316C90.158 324.431 73.363 315.971 58.479 303.937C41.342 290.138 27.2211 272.967 16.9937 253.486C8.97311 238.149 3.72621 221.516 1.49511 204.353C-1.63219 181.973 0.643219 159.169 8.13112 137.847C15.4717 116.697 27.3858 97.425 43.025 81.405C58.712 65.08 77.533 52.09 98.361 43.215C114.072 36.535 130.347 31.789 147.486 30.5437C148.827 30.4485 151.266 30.7049 151.39 31.225C151.809 33.252 151.829 35.342 151.449 37.377C151.354 37.927 149.676 38.498 148.688 38.586C133.841 39.884 119.242 43.208 105.297 48.467C89.85 54.221 75.515 62.604 62.925 73.245C50.796 83.5 39.6995 94.721 31.3716 108.344C23.6394 120.778 17.7202 134.252 13.7929 148.358C12.4965 153.119 11.0535 157.88 10.0794 162.677C7.14961 177.106 7.88201 191.579 9.96951 206.031C12.093 220.807 16.5661 235.149 23.2195 248.513C32.0521 266.212 44.357 281.953 59.402 294.796C74.154 307.511 90.766 316.923 108.718 323.867C123.777 329.726 139.627 332.51 155.844 333.125C173.84 333.806 191.668 332.781 209.136 328.181C222.994 324.519 235.863 318.622 248.264 311.335C267.573 300.029 284.143 284.594 296.788 266.135C305.78 253.314 312.243 238.896 315.832 223.653C316.403 221.207 315.832 220.394 313.349 220.387C298.641 220.387 283.934 220.387 269.226 220.387C256.892 220.387 244.558 220.387 232.223 220.387C228.561 220.387 227.492 219.471 226.202 215.992C222.665 206.47 219.046 197.022 215.567 187.5C214.835 185.551 214.666 183.405 214.058 181.406C213.516 179.611 212.733 177.89 212.059 176.139L211.143 176.242ZM108.696 131.665C107.839 132.881 106.931 133.789 106.499 134.881C104.521 139.693 102.749 144.586 100.756 149.391C99.65 152.288 98.295 155.084 96.706 157.748C94.648 160.956 92.56 160.678 90.971 157.206C89.044 152.994 87.221 148.731 85.155 144.022C84.046 145.387 83.009 146.81 82.05 148.285C75.506 159.579 69.017 170.895 62.581 182.233C62.437 182.528 62.367 182.854 62.377 183.182C62.387 183.51 62.477 183.831 62.64 184.116C65.299 186.606 68.067 188.972 71.026 191.565C72.074 190.32 72.879 189.47 73.553 188.532C75.626 185.647 77.574 182.673 79.742 179.838C80.387 178.989 81.574 178.557 82.511 177.927C83.06 178.901 83.668 179.853 84.137 180.856C84.334 181.463 84.467 182.089 84.533 182.724C85.463 187.119 86.4 191.448 87.374 195.996C87.916 195.322 88.451 194.714 88.913 194.062C91.637 190.202 94.259 186.269 97.101 182.497C98.947 180.043 100.361 180.249 101.723 183.039C103.576 186.804 105.297 190.627 107.07 194.429L107.986 194.509C108.799 191.33 109.743 188.174 110.417 184.987C112.834 173.459 115.281 161.937 117.419 150.357C117.692 148.128 117.267 145.868 116.204 143.89C114.109 139.839 111.479 136.097 108.696 131.665Z" fill="#234982"/>
<path d="M68.1378 337.614C64.4748 339.775 60.8128 342.009 57.0338 344.045C55.9718 344.616 54.5578 344.521 53.2978 344.726C53.2978 343.517 52.9828 342.228 53.2978 341.108C54.3888 337.182 55.6928 333.307 56.9158 329.388L56.2938 328.971C54.5208 331.168 52.7408 333.3 50.9758 335.475C50.1708 336.464 49.5108 337.672 48.5228 338.405C47.7898 338.976 46.5818 338.976 45.5928 339.233L45.0508 338.207C46.4718 336.361 47.8778 334.501 49.3208 332.67C51.7598 329.601 54.1258 326.466 56.7408 323.551C57.4068 322.818 59.1868 322.24 59.9268 322.621C60.6668 323.002 61.2668 324.774 61.0548 325.741C60.2048 329.659 59.0038 333.497 57.9488 337.372C57.7588 338.053 57.6488 338.749 57.3488 340.155C59.7948 338.822 61.7428 337.79 63.6398 336.72C65.7058 335.563 67.6468 334.069 69.8438 333.292C71.0308 332.875 72.7078 333.454 73.9818 334.025C74.2678 334.142 74.1438 336.303 73.5868 337.079C70.6228 341.225 67.5298 345.273 64.3068 349.223C63.6548 350.021 62.2048 350.168 61.1208 350.615C61.2958 349.384 61.1208 347.941 61.7208 346.953C62.9698 345.156 64.3358 343.444 65.8078 341.825C66.8118 340.595 67.8008 339.35 68.7968 338.119L68.1378 337.614Z" fill="#234982"/>
<path d="M94.5519 363.153C95.5939 361.731 96.5529 360.249 97.4229 358.715C99.4299 354.723 101.305 350.658 103.202 346.615C103.934 345.018 104.982 344.381 106.688 345.238C108.644 346.219 110.673 347.054 112.599 348.094C114.831 349.208 116.617 351.047 117.664 353.31C118.712 355.572 118.958 358.124 118.364 360.546C117.067 366.171 112.394 370.339 107.172 370.617C102.953 370.844 99.2979 369.152 95.8259 367.145C94.7349 366.523 94.3609 364.64 93.6289 363.329L94.5519 363.153ZM115.06 358.524C115.06 354.21 112.922 351.522 108.878 349.779C106.908 348.929 105.619 349.208 104.777 351.244C103.114 355.294 101.356 359.301 99.7379 363.366C99.6479 363.676 99.6359 364.004 99.7039 364.319C99.7719 364.635 99.9169 364.929 100.126 365.175C103.246 366.801 106.535 368.149 110.021 366.457C113.508 364.765 114.687 361.571 115.068 358.524H115.06Z" fill="#234982"/>
<path d="M169.526 363.23V367.69V375.081C169.526 376.472 169.299 377.71 167.526 377.732C165.754 377.754 165.922 376.333 165.922 375.198C165.922 369.9 165.922 364.604 165.922 359.311C165.922 357.172 167.241 356.184 169.116 357.268C170.791 358.318 172.244 359.686 173.393 361.296C175.803 364.497 177.971 367.888 180.205 371.221C180.458 371.686 180.662 372.177 180.813 372.686L181.838 372.092C181.838 369.39 181.838 366.694 181.838 363.999C181.762 362.267 181.804 360.532 181.963 358.806C182.058 358.154 183.076 357.07 183.486 357.15C184.255 357.297 185.464 358.132 185.479 358.71C185.632 364.46 185.625 370.21 185.53 375.96C185.53 376.56 184.651 377.652 184.197 377.644C182.937 377.644 181.267 377.549 180.535 376.765C178.353 374.312 176.309 371.739 174.411 369.06C172.946 367.126 171.628 365.119 170.236 363.142L169.526 363.23Z" fill="#234982"/>
<path d="M128.326 361.463C131.366 362.239 134.288 362.847 137.116 363.777C137.973 364.055 139.115 365.198 139.13 365.974C139.13 367.813 137.665 367.337 136.486 367.102C134.166 366.614 131.847 366.126 129.528 365.638C127.33 365.161 126.422 366.099 126.473 368.223C126.473 368.86 126.547 369.505 126.473 370.142C126.319 372.449 127.272 373.336 129.674 373.409C131.925 373.564 134.143 374.03 136.266 374.793C136.896 374.998 137.182 376.258 137.628 377.027C136.896 377.298 136.076 377.921 135.431 377.76C131.578 377.027 127.762 376.17 123.939 375.32C122.137 374.918 121.339 373.987 121.8 371.966C123.119 366.282 124.261 360.562 125.521 354.863C126.019 352.607 127.338 351.662 129.74 352.278C133.007 353.105 136.332 353.794 139.613 354.475C141.21 354.812 142.272 355.742 141.598 357.302C141.364 357.852 139.665 358.035 138.669 357.932C137.136 357.694 135.618 357.374 134.12 356.973C129.835 356.204 129.432 356.497 128.326 361.463Z" fill="#234982"/>
<path d="M212.028 359.112C213.368 362.262 214.694 365.419 216.035 368.568C216.393 369.41 217.001 370.216 217.075 371.08C217.148 371.945 216.62 372.64 216.342 373.432C215.573 373.036 214.54 372.824 214.101 372.201C213.527 371.164 213.077 370.062 212.76 368.92C211.12 364.759 209.428 360.614 207.875 356.417C207.567 355.589 207.414 353.97 207.78 353.773C208.831 353.128 210.074 352.869 211.296 353.04C212.636 353.384 213.823 354.432 215.024 355.238C218.714 357.879 222.57 360.281 226.567 362.43C225.359 359.383 224.165 356.336 222.905 353.304C222.495 352.286 221.784 351.348 221.601 350.301C221.469 349.517 221.96 348.624 222.172 347.781C223.169 348.111 224.729 348.155 225.058 348.814C226.275 351.378 227.339 354.012 228.244 356.702C229.16 359.185 230.119 361.661 230.786 364.217C231.064 365.272 230.969 367.294 230.464 367.506C229.86 367.739 229.215 367.846 228.569 367.819C227.923 367.793 227.289 367.634 226.706 367.352C222.846 365.111 219.162 362.562 215.412 360.138C214.518 359.566 213.603 359.046 212.695 358.504L212.028 359.112Z" fill="#234982"/>
<path d="M51.586 53.116C51.505 56.778 49.66 59.569 46.517 61.495C45.638 62.03 44.32 62.499 43.434 62.228C42.035 61.788 39.8155 60.763 39.7716 59.884C39.6471 57.862 41.647 57.687 43.434 57.687C43.978 57.73 44.526 57.665 45.045 57.495C45.564 57.324 46.044 57.052 46.457 56.694C46.869 56.336 47.207 55.899 47.448 55.41C47.69 54.92 47.832 54.386 47.865 53.841C47.931 52.801 47.536 51.314 46.803 50.758C46.071 50.201 44.525 50.23 43.551 50.582C42.211 51.058 41.09 52.113 39.8448 52.874C35.582 55.467 32.0955 54.339 30.096 49.791C28.3161 45.711 31.9344 39.236 36.373 38.577C36.9077 38.504 37.6109 38.357 37.9844 38.577C39.0035 39.335 39.9815 40.147 40.914 41.009C39.8741 41.697 38.878 42.869 37.794 42.957C35.5966 43.125 33.912 43.689 33.641 45.997C33.5634 46.561 33.6062 47.135 33.7666 47.682C33.9269 48.229 34.2011 48.735 34.5712 49.168C35.0986 49.644 36.6147 49.344 37.501 48.963C38.5631 48.516 39.3834 47.542 40.394 46.927C42.592 45.572 44.943 44.356 47.543 45.923C48.807 46.642 49.851 47.691 50.563 48.958C51.276 50.225 51.629 51.663 51.586 53.116Z" fill="#234982"/>
<path d="M51.586 53.116C51.505 56.778 49.66 59.569 46.517 61.495C45.638 62.03 44.32 62.499 43.434 62.228C42.035 61.788 39.8155 60.763 39.7716 59.884C39.6471 57.862 41.647 57.687 43.434 57.687C43.978 57.73 44.526 57.665 45.045 57.495C45.564 57.324 46.044 57.052 46.457 56.694C46.869 56.336 47.207 55.899 47.448 55.41C47.69 54.92 47.832 54.386 47.865 53.841C47.931 52.801 47.536 51.314 46.803 50.758C46.071 50.201 44.525 50.23 43.551 50.582C42.211 51.058 41.09 52.113 39.8448 52.874C35.582 55.467 32.0955 54.339 30.096 49.791C28.3161 45.711 31.9344 39.236 36.373 38.577C36.9077 38.504 37.6109 38.357 37.9844 38.577C39.0035 39.335 39.9815 40.147 40.914 41.009C39.8741 41.697 38.878 42.869 37.794 42.957C35.5966 43.125 33.912 43.689 33.641 45.997C33.5634 46.561 33.6062 47.135 33.7666 47.682C33.9269 48.229 34.2011 48.735 34.5712 49.168C35.0986 49.644 36.6147 49.344 37.501 48.963C38.5631 48.516 39.3834 47.542 40.394 46.927C42.592 45.572 44.943 44.356 47.543 45.923C48.807 46.642 49.851 47.691 50.563 48.958C51.276 50.225 51.629 51.663 51.586 53.116Z" fill="#234982"/>
<path d="M75.7714 31.554C73.1494 27.6129 70.9444 24.3096 68.7624 20.999C68.0294 19.9442 66.9894 18.6624 68.6524 17.8128C69.1644 17.5491 70.7254 18.5453 71.2964 19.3143C74.4164 23.5845 77.4484 27.9279 80.3424 32.352C80.9064 33.216 81.2434 35.201 80.7964 35.553C80.2914 35.941 79.7084 36.213 79.0864 36.351C78.4654 36.489 77.8214 36.489 77.1994 36.351C74.2704 35.223 71.4504 33.597 68.5714 32.22C66.4334 31.112 64.1504 30.3106 61.7894 29.8396C64.2944 33.463 66.7914 37.093 69.2824 40.731C69.6924 41.324 70.2924 41.998 70.2704 42.621C70.2064 42.95 70.0584 43.258 69.8424 43.514C69.6254 43.77 69.3474 43.967 69.0334 44.086C68.6764 44.096 68.3224 44.027 67.9964 43.882C67.6714 43.738 67.3824 43.522 67.1504 43.251C63.8154 38.563 60.5514 33.834 57.3574 29.0632C56.8304 28.2721 56.8154 27.1442 56.5664 26.17C57.8774 25.8477 59.4084 24.9249 60.4704 25.3057C64.7554 26.8366 68.8934 28.7702 73.0984 30.5427C73.7354 30.8211 74.3944 31.041 75.7714 31.554Z" fill="#234982"/>
<path d="M75.7714 31.554C73.1494 27.6129 70.9444 24.3096 68.7624 20.999C68.0294 19.9442 66.9894 18.6624 68.6524 17.8128C69.1644 17.5491 70.7254 18.5453 71.2964 19.3143C74.4164 23.5845 77.4484 27.9279 80.3424 32.352C80.9064 33.216 81.2434 35.201 80.7964 35.553C80.2914 35.941 79.7084 36.213 79.0864 36.351C78.4654 36.489 77.8214 36.489 77.1994 36.351C74.2704 35.223 71.4504 33.597 68.5714 32.22C66.4334 31.112 64.1504 30.3106 61.7894 29.8396C64.2944 33.463 66.7914 37.093 69.2824 40.731C69.6924 41.324 70.2924 41.998 70.2704 42.621C70.2064 42.95 70.0584 43.258 69.8424 43.514C69.6254 43.77 69.3474 43.967 69.0334 44.086C68.6764 44.096 68.3224 44.027 67.9964 43.882C67.6714 43.738 67.3824 43.522 67.1504 43.251C63.8154 38.563 60.5514 33.834 57.3574 29.0632C56.8304 28.2721 56.8154 27.1442 56.5664 26.17C57.8774 25.8477 59.4084 24.9249 60.4704 25.3057C64.7554 26.8366 68.8934 28.7702 73.0984 30.5427C73.7354 30.8211 74.3944 31.041 75.7714 31.554Z" fill="#234982"/>
<path d="M240.58 341.387C246.754 341.387 250.834 344.771 252.438 350.469C253.06 352.688 252.935 355.05 252.081 357.191C251.227 359.331 249.692 361.131 247.714 362.313C245.517 363.631 243.18 364.635 240.91 365.785C239.386 366.561 238.397 366.202 237.628 364.613C235.057 359.266 232.333 353.992 229.82 348.616C229.483 347.884 229.703 346.279 230.245 345.884C233.607 343.438 237.291 341.672 240.58 341.387ZM249.369 352.3C249.303 349.663 247.611 346.821 244.301 345.276C240.682 343.591 237.335 345.012 234.288 347.041C234.064 347.331 233.915 347.673 233.856 348.035C233.797 348.397 233.83 348.768 233.951 349.114C235.826 353.059 237.792 356.966 239.848 360.833C240.037 361.165 240.3 361.45 240.616 361.666C240.932 361.881 241.293 362.022 241.671 362.078C245.465 361.829 249.369 357.339 249.362 352.308L249.369 352.3Z" fill="#234982"/>
<path d="M88.1812 364.4C85.5812 364.239 84.3872 362.994 84.8122 360.335C84.9582 359.434 84.9802 358.511 85.1052 357.61C85.3172 356.006 84.7602 354.952 83.1272 354.534C82.6842 354.415 82.2642 354.224 81.8822 353.97C79.0842 352.117 76.5202 351.97 74.3012 354.908C73.9572 355.459 73.4422 355.883 72.8362 356.116C71.8622 356.218 70.8802 356.218 69.9062 356.116C70.1042 355.332 70.0532 354.292 70.5512 353.787C75.4802 348.777 80.4613 343.811 85.5443 338.955C85.9473 338.624 86.4212 338.39 86.9292 338.272C87.4372 338.154 87.9662 338.154 88.4742 338.274C88.9322 338.513 89.3262 338.86 89.6202 339.285C89.9152 339.71 90.1022 340.2 90.1662 340.713C89.7702 348.367 89.1772 356.014 88.6283 363.66C88.6063 363.887 88.3642 364.107 88.1812 364.4ZM86.2762 343.247L79.4792 349.575L86.2762 352.505V343.247Z" fill="#234982"/>
<path d="M264.766 327.475C265.264 326.874 265.776 325.783 266.611 325.388C267.056 325.227 267.531 325.168 268.001 325.215C268.471 325.262 268.925 325.413 269.329 325.659C274.749 329.819 280.098 334.067 285.377 338.403C285.992 338.909 286.021 340.139 286.322 341.033C285.296 340.996 283.817 341.384 283.311 340.857C280.323 337.693 277.737 338.008 274.178 340.359C271.365 342.212 270.728 343.897 271.724 346.746C271.993 347.327 272.099 347.97 272.032 348.606C271.856 349.273 271.255 350.342 270.874 350.327C270.142 350.327 268.992 349.712 268.882 349.177C267.49 342.124 266.172 335.034 264.766 327.475ZM276.609 335.415L269.321 329.899L268.435 330.566C269.072 333.188 269.717 335.81 270.471 338.909L276.609 335.415Z" fill="#234982"/>
<path d="M244.052 18.6257C245.29 18.9626 246.359 19.2043 247.385 19.5559C248.889 19.9953 250.205 20.9223 251.125 22.1912C252.046 23.4601 252.518 24.9988 252.468 26.5654C252.468 29.378 250.183 32.506 247.443 33.494C242.844 35.157 237.109 32.125 235.995 27.3858C235.827 26.6533 236.259 25.7744 236.42 24.9614C237.219 25.269 238.185 25.4082 238.771 25.9502C239.34 26.6605 239.792 27.4565 240.112 28.3086C241.254 30.506 243.107 31.173 245.393 30.6232C247.253 30.1764 249.055 27.0928 248.557 25.0932C248.044 22.9398 246.499 21.9437 244.316 21.9876C243.041 21.9876 241.767 22.1634 240.485 22.1634C238.727 22.1634 238.061 21.2698 238.962 19.7097C240.427 17.1022 242.023 14.524 243.752 12.0776C244.069 11.8028 244.448 11.6092 244.856 11.5135C245.264 11.4178 245.69 11.4229 246.096 11.5283C248.938 12.5171 251.728 13.6597 254.46 14.9195C255.09 15.2125 255.398 16.2013 255.859 16.8678C255.083 17.1681 254.211 17.8566 253.545 17.6955C251.991 17.1847 250.47 16.5805 248.989 15.8863C245.92 14.7071 245.466 14.9488 244.052 18.6257Z" fill="#234982"/>
<path d="M123.023 10.378C120.606 11.0372 118.21 11.7477 115.779 12.3336C112.065 13.2199 111.435 14.1648 112.981 17.5999C113.272 18.0264 113.664 18.3753 114.121 18.6166C114.577 18.8578 115.086 18.984 115.603 18.9843C118.298 18.618 120.928 17.7684 123.616 17.2996C124.282 17.1898 125.081 17.8343 125.813 18.1273C125.286 18.7499 124.854 19.7533 124.202 19.9291C120.43 20.9619 116.606 21.7969 112.79 22.7051C111.15 23.086 110.183 22.4634 109.809 20.7861C108.667 15.659 107.48 10.4659 106.294 5.31681C105.905 3.62491 106.638 2.7093 108.256 2.387C111.728 1.6546 115.185 0.783 118.679 0.1384C119.36 0.0138999 120.144 0.592506 120.935 0.870906C120.4 1.60331 120.005 2.6946 119.324 2.8997C116.878 3.6259 114.39 4.20321 111.875 4.62831C110.154 4.94331 109.773 5.8661 110.278 7.353C110.747 8.708 110.652 10.7149 113.076 10.0924C115.273 9.5284 117.471 8.7959 119.668 8.4443C120.715 8.2759 121.865 8.8325 122.979 9.0596L123.023 10.378Z" fill="#234982"/>
<path d="M123.023 10.378C120.606 11.0372 118.21 11.7477 115.779 12.3336C112.065 13.2199 111.435 14.1648 112.981 17.5999C113.272 18.0264 113.664 18.3753 114.121 18.6166C114.577 18.8578 115.086 18.984 115.603 18.9843C118.298 18.618 120.928 17.7684 123.616 17.2996C124.282 17.1898 125.081 17.8343 125.813 18.1273C125.286 18.7499 124.854 19.7533 124.202 19.9291C120.43 20.9619 116.606 21.7969 112.79 22.7051C111.15 23.086 110.183 22.4634 109.809 20.7861C108.667 15.659 107.48 10.4659 106.294 5.31681C105.905 3.62491 106.638 2.7093 108.256 2.387C111.728 1.6546 115.185 0.783 118.679 0.1384C119.36 0.0138999 120.144 0.592506 120.935 0.870906C120.4 1.60331 120.005 2.6946 119.324 2.8997C116.878 3.6259 114.39 4.20321 111.875 4.62831C110.154 4.94331 109.773 5.8661 110.278 7.353C110.747 8.708 110.652 10.7149 113.076 10.0924C115.273 9.5284 117.471 8.7959 119.668 8.4443C120.715 8.2759 121.865 8.8325 122.979 9.0596L123.023 10.378Z" fill="#234982"/>
<path d="M96.34 10.5471C95.527 12.2977 94.333 12.6859 92.641 11.6531C90.73 10.4739 88.715 9.94651 86.782 11.4993C85.803 12.2051 85.088 13.2174 84.75 14.3756C84.411 15.5339 84.469 16.7719 84.914 17.8936C85.954 20.5523 87.17 23.3869 89.104 25.3645C90.341 26.639 93.132 27.1444 95.007 26.8294C96.201 26.6024 97.029 24.2219 97.937 22.757C98.259 22.2296 98.164 21.3873 98.567 20.9991C99.187 20.5364 99.873 20.1709 100.603 19.9151C100.925 20.5597 101.511 21.2042 101.533 21.8634C101.65 25.8772 99.702 28.6605 95.967 30.0082C92.231 31.356 87.8 30.3891 85.485 26.8514C83.523 23.8256 82.107 20.4788 81.303 16.9634C80.417 13.0594 83.178 9.30201 87.067 7.74181C90.18 6.46011 93.996 7.61001 96.34 10.5471Z" fill="#234982"/>
<path d="M96.34 10.5471C95.527 12.2977 94.333 12.6859 92.641 11.6531C90.73 10.4739 88.715 9.94651 86.782 11.4993C85.803 12.2051 85.088 13.2174 84.75 14.3756C84.411 15.5339 84.469 16.7719 84.914 17.8936C85.954 20.5523 87.17 23.3869 89.104 25.3645C90.341 26.639 93.132 27.1444 95.007 26.8294C96.201 26.6024 97.029 24.2219 97.937 22.757C98.259 22.2296 98.164 21.3873 98.567 20.9991C99.187 20.5364 99.873 20.1709 100.603 19.9151C100.925 20.5597 101.511 21.2042 101.533 21.8634C101.65 25.8772 99.702 28.6605 95.967 30.0082C92.231 31.356 87.8 30.3891 85.485 26.8514C83.523 23.8256 82.107 20.4788 81.303 16.9634C80.417 13.0594 83.178 9.30201 87.067 7.74181C90.18 6.46011 93.996 7.61001 96.34 10.5471Z" fill="#234982"/>
<path d="M227.446 19.4239C227.023 19.3335 226.595 19.2675 226.164 19.2261C222.722 19.043 220.627 17.4829 219.96 14.597C219.323 11.8211 220.971 8.005 223.439 6.5401C224.653 5.7813 226.094 5.46989 227.513 5.65979C228.931 5.84969 230.239 6.5289 231.211 7.5802C232.375 8.82 233.083 10.4188 233.218 12.1141C233.2 16.734 231.357 21.1597 228.091 24.4265C225.388 27.1585 221.77 27.2244 219.03 24.7121C218.293 24.0499 217.781 23.1743 217.565 22.2072C217.419 21.3795 217.924 20.442 218.144 19.5557L220.341 21.0206C221.513 21.819 222.626 23.174 223.864 23.2985C225.695 23.4889 226.926 21.8043 227.446 19.4239ZM230.134 12.0262C229.988 10.195 229.16 8.75209 227.08 8.60559C225.205 8.47379 223.278 10.6492 223.198 12.8172C223.125 14.8241 224.062 16.1938 226.076 16.4794C227.937 16.7431 230.061 14.348 230.134 12.0262Z" fill="#234982"/>
<path d="M284.938 164.398C285.354 162.67 285.907 160.978 286.592 159.337C288.547 155.419 290.614 151.544 292.87 147.794C293.478 146.783 294.965 145.633 295.961 145.706C296.957 145.78 298.239 147.23 298.539 148.307C299.608 152.167 300.392 156.115 301.081 160.062C301.205 160.795 300.399 161.703 300.019 162.531C299.455 161.93 298.598 161.417 298.393 160.714C297.748 158.517 297.418 156.276 296.825 154.078C296.501 153.369 296.066 152.717 295.536 152.145C294.85 152.488 294.226 152.944 293.69 153.492C291.757 156.371 289.969 159.352 288.058 162.245C287.376 163.158 286.642 164.032 285.859 164.86L284.938 164.398Z" fill="#234982"/>
<path d="M155.317 153.35C153.361 149.153 157.807 130.952 161.558 127.824C163.901 131.706 159.287 150.581 155.317 153.35Z" fill="#234982"/>
<path d="M205.679 373.93C205.005 374.414 204.214 375.395 203.357 375.461C202.888 375.409 202.439 375.238 202.055 374.963C201.67 374.689 201.362 374.321 201.16 373.894C199.842 368.108 198.75 362.27 197.542 356.454C197.227 354.989 197.791 353.971 199.226 354.001C200.069 354.001 201.49 354.733 201.636 355.334C203.072 361.281 204.273 367.28 205.679 373.93Z" fill="#234982"/>
<path d="M266.091 352.949C262.692 355.674 262.611 355.718 260.736 352.7C257.894 348.13 255.17 343.486 252.408 338.864C251.676 337.656 250.944 336.586 252.877 335.524C254.569 334.587 255.265 335.18 256.1 336.579C259.367 342.051 262.721 347.441 266.091 352.949Z" fill="#234982"/>
<path d="M62.4061 47.923C61.9451 48.435 61.5711 49.212 61.0151 49.388C60.6821 49.465 60.3361 49.463 60.0041 49.383C59.6721 49.303 59.3641 49.146 59.1031 48.926C57.5141 47.176 56.0491 45.308 54.5981 43.433C52.2031 40.335 49.7501 37.273 47.5601 34.028C47.0251 33.237 46.9441 31.413 47.4861 30.7835C48.6361 29.4505 49.7641 30.6077 50.5701 31.655C54.2371 36.426 57.8991 41.204 61.5571 45.989C61.9001 46.605 62.1851 47.253 62.4061 47.923Z" fill="#234982"/>
<path d="M62.4061 47.923C61.9451 48.435 61.5711 49.212 61.0151 49.388C60.6821 49.465 60.3361 49.463 60.0041 49.383C59.6721 49.303 59.3641 49.146 59.1031 48.926C57.5141 47.176 56.0491 45.308 54.5981 43.433C52.2031 40.335 49.7501 37.273 47.5601 34.028C47.0251 33.237 46.9441 31.413 47.4861 30.7835C48.6361 29.4505 49.7641 30.6077 50.5701 31.655C54.2371 36.426 57.8991 41.204 61.5571 45.989C61.9001 46.605 62.1851 47.253 62.4061 47.923Z" fill="#234982"/>
<path d="M266.122 27.2682L262.643 26.1182C263.742 25.2906 264.401 24.3823 265.06 24.375C267.082 24.4477 269.099 24.6262 271.103 24.9097C270.381 26.6238 269.569 28.2985 268.671 29.9269C266.313 33.721 263.844 37.449 261.347 41.148C260.695 42.115 259.882 43.778 258.417 42.349C257.955 41.888 258.204 40.152 258.68 39.376C260.468 36.307 262.497 33.384 264.401 30.3811C265.001 29.4728 265.463 28.4987 266.122 27.2682Z" fill="#234982"/>
<path d="M207.816 4.1603H204.739L204.168 3.4279C205.003 2.6954 205.721 1.6407 206.702 1.2305C208.173 0.691899 209.688 0.2802 211.229 0C211.301 1.4093 211.267 2.8221 211.126 4.2262C210.342 8.9066 209.508 13.5869 208.46 18.216C208.24 19.2048 206.995 20.7868 206.351 20.7136C204.336 20.4865 205.018 18.8092 205.274 17.4762C206.116 13.1181 206.944 8.7894 207.816 4.1603Z" fill="#234982"/>
<path d="M159.975 367.275C159.975 369.912 159.975 372.556 159.975 375.2C159.975 376.533 159.843 378.086 158.034 377.676C157.302 377.508 156.32 376.145 156.298 375.296C156.152 370.015 156.167 364.719 156.35 359.438C156.35 358.581 157.5 357.761 158.115 356.926C158.737 357.731 159.829 358.493 159.902 359.35C160.144 361.972 159.99 364.631 159.99 367.275H159.975Z" fill="#234982"/>
<path d="M85.7656 243.766V248.856H68.6706V257.331H84.0516V262.143H68.6706V270.72H86.3156V275.803H63.2656V243.766H85.7656Z" fill="#234982"/>
<path d="M107.856 275.803H101.806L88.9297 243.766H94.9797L104.831 267.695L114.69 243.766H120.74L107.856 275.803Z" fill="#234982"/>
<path d="M147.822 243.766V248.856H130.726V257.331H146.107V262.143H130.726V270.72H148.37V275.803H125.312V243.766H147.822Z" fill="#234982"/>
<path d="M180.863 254.159C180.863 259.442 178.558 262.773 173.948 264.15L182.335 275.788H175.457L167.803 265.021H160.698V275.788H155.293V243.766H167.21C172.093 243.766 175.592 244.591 177.706 246.241C179.82 247.892 180.872 250.531 180.863 254.159ZM173.67 258.693C174.769 257.748 175.318 256.225 175.318 254.137C175.318 252.05 174.754 250.607 173.626 249.823C172.498 249.039 170.477 248.658 167.576 248.658H160.698V260.114H167.437C170.491 260.128 172.571 259.66 173.67 258.708V258.693Z" fill="#234982"/>
<path d="M211.164 243.766V248.856H194.069V257.331H209.45V262.143H194.069V270.72H211.714V275.803H188.656V243.766H211.164Z" fill="#234982"/>
<path d="M228.329 247.985C226.972 247.931 225.628 248.263 224.454 248.945C223.963 249.253 223.563 249.687 223.298 250.203C223.032 250.718 222.91 251.296 222.945 251.874C222.918 252.458 223.042 253.039 223.307 253.561C223.571 254.082 223.967 254.525 224.454 254.848C225.465 255.537 227.611 256.269 230.892 257.045C234.173 257.822 236.649 258.938 238.319 260.393C239.979 261.828 240.812 263.943 240.817 266.736C240.853 268.039 240.586 269.332 240.037 270.514C239.488 271.696 238.671 272.735 237.653 273.547C235.572 275.271 232.809 276.145 229.361 276.17C224.421 276.203 219.653 274.357 216.023 271.006L219.415 266.926C222.652 269.739 226.014 271.145 229.5 271.145C230.966 271.222 232.419 270.829 233.646 270.024C234.129 269.694 234.522 269.249 234.79 268.728C235.057 268.207 235.19 267.628 235.177 267.043C235.198 266.478 235.075 265.916 234.818 265.411C234.562 264.906 234.181 264.474 233.712 264.158C232.179 263.24 230.495 262.602 228.739 262.275C226.92 261.869 225.13 261.348 223.377 260.715C222.203 260.272 221.105 259.646 220.125 258.862C218.226 257.426 217.278 255.229 217.283 252.27C217.218 250.95 217.479 249.634 218.042 248.439C218.605 247.243 219.454 246.204 220.513 245.414C222.843 243.757 225.654 242.912 228.512 243.012C230.584 243.017 232.641 243.356 234.606 244.015C236.511 244.628 238.285 245.592 239.835 246.857L236.949 250.937C235.818 249.986 234.508 249.271 233.097 248.835C231.566 248.289 229.954 248.002 228.329 247.985Z" fill="#234982"/>
<path d="M259.609 248.717V275.818H254.197V248.717H244.484V243.766H269.322V248.717H259.609Z" fill="#234982"/>
<path d="M457.734 95.7956L457.662 113.506L398.188 113.263L398.067 142.746L451.579 142.964L451.511 159.705L397.999 159.487L397.877 189.326L459.263 189.577L459.191 207.261L379 206.934L379.454 95.4766L457.734 95.7956Z" fill="#F47821"/>
<path d="M534.125 207.574L513.077 207.488L468.734 95.8477L489.782 95.9326L523.716 179.322L558.354 96.2126L579.402 96.2986L534.125 207.574Z" fill="#F47821"/>
<path d="M673.635 96.6862L673.562 114.396L614.088 114.154L613.968 143.636L667.48 143.854L667.411 160.596L613.899 160.378L613.778 190.217L675.163 190.467L675.091 208.152L594.875 207.825L595.329 96.3672L673.635 96.6862Z" fill="#F47821"/>
<path d="M788.436 133.303C788.361 151.684 780.295 163.237 764.239 167.962L793.251 208.571L769.323 208.474L742.847 170.907L718.13 170.806L717.977 208.264L699.172 208.188L699.626 96.7812L741.085 96.9502C758.073 97.0202 770.233 99.9402 777.565 105.712C784.897 111.484 788.521 120.681 788.436 133.303ZM763.348 148.974C767.184 145.702 769.116 140.41 769.146 133.148C769.176 125.885 767.234 120.857 763.321 118.115C759.408 115.372 752.38 114.018 742.289 113.977L718.362 113.88L718.2 153.733L741.643 153.829C752.269 153.923 759.512 152.322 763.348 149.025V148.974Z" fill="#F47821"/>
<path d="M894.002 97.5807L893.93 115.291L834.455 115.048L834.335 144.531L887.847 144.749L887.779 161.491L834.267 161.272L834.145 191.112L895.531 191.362L895.459 209.046L815.242 208.719L815.696 97.2617L894.002 97.5807Z" fill="#F47821"/>
<path d="M953.643 112.505C948.923 112.296 944.243 113.435 940.153 115.788C938.437 116.853 937.041 118.359 936.11 120.148C935.18 121.938 934.748 123.945 934.86 125.96C934.756 127.991 935.182 130.014 936.094 131.831C937.007 133.648 938.376 135.197 940.063 136.327C943.573 138.736 951.033 141.315 962.433 144.063C973.843 146.81 982.433 150.727 988.223 155.813C993.983 160.831 996.843 168.199 996.823 177.916C996.933 182.449 995.983 186.945 994.053 191.05C992.133 195.154 989.273 198.755 985.723 201.569C978.463 207.536 968.833 210.538 956.833 210.574C939.65 210.62 923.089 204.13 910.508 192.42L922.364 178.275C933.587 188.106 945.263 193.046 957.393 193.095C962.493 193.384 967.553 192.039 971.833 189.255C973.513 188.113 974.893 186.569 975.823 184.761C976.763 182.954 977.233 180.941 977.203 178.906C977.283 176.938 976.863 174.981 975.973 173.221C975.093 171.461 973.773 169.955 972.143 168.845C966.823 165.631 960.973 163.389 954.873 162.226C948.553 160.787 942.323 158.949 936.238 156.722C932.158 155.163 928.349 152.972 924.95 150.229C918.362 145.208 915.098 137.55 915.157 127.255C914.949 122.662 915.874 118.088 917.85 113.937C919.827 109.785 922.795 106.184 926.491 103.45C934.62 97.7162 944.413 94.8192 954.353 95.2062C961.563 95.2522 968.713 96.4602 975.543 98.7832C982.163 100.942 988.313 104.32 993.693 108.744L983.593 122.897C979.673 119.572 975.123 117.067 970.223 115.529C964.903 113.608 959.303 112.586 953.643 112.505Z" fill="#F47821"/>
<path d="M1062.46 115.487L1062.08 209.77L1043.25 209.693L1043.63 115.41L1009.84 115.273L1009.91 98.0469L1096.32 98.3989L1096.25 115.625L1062.46 115.487Z" fill="#F47821"/>
<path d="M379 307.892V244.861H411.246V251.632H385.471V272.93H409.577V279.701H385.471V301.121H411.664V307.892H379ZM422.908 307.892V244.861H429.378V301.121H454.215V307.892H422.908ZM464.232 307.892V244.861H496.478V251.632H470.703V272.93H494.809V279.701H470.703V301.121H496.896V307.892H464.232ZM510.332 244.861L526.194 297.92H526.82L542.682 244.861H549.465L529.847 307.892H523.167L503.548 244.861H510.332ZM555.388 307.892H548.604L568.223 244.861H574.902L594.52 307.892H587.737L571.771 254.833H571.354L555.388 307.892ZM557.892 283.271H585.234V290.042H557.892V283.271ZM593.68 251.632V244.861H633.752V251.632H616.95V307.892H610.481V251.632H593.68ZM686.595 276.377C686.595 283.024 685.577 288.77 683.543 293.611C681.508 298.454 678.716 302.189 675.168 304.814C671.62 307.441 667.568 308.754 663.01 308.754C658.454 308.754 654.401 307.441 650.853 304.814C647.305 302.189 644.514 298.454 642.479 293.611C640.444 288.77 639.427 283.024 639.427 276.377C639.427 269.729 640.444 263.985 642.479 259.142C644.514 254.3 647.305 250.566 650.853 247.939C654.401 245.314 658.454 244 663.01 244C667.568 244 671.62 245.314 675.168 247.939C678.716 250.566 681.508 254.3 683.543 259.142C685.577 263.985 686.595 269.729 686.595 276.377ZM680.333 276.377C680.333 270.919 679.56 266.313 678.011 262.559C676.481 258.804 674.402 255.961 671.777 254.033C669.168 252.105 666.245 251.141 663.01 251.141C659.776 251.141 656.845 252.105 654.218 254.033C651.609 255.961 649.532 258.804 647.983 262.559C646.453 266.313 645.687 270.919 645.687 276.377C645.687 281.834 646.453 286.441 647.983 290.196C649.532 293.95 651.609 296.792 654.218 298.721C656.845 300.649 659.776 301.614 663.01 301.614C666.245 301.614 669.168 300.649 671.777 298.721C674.402 296.792 676.481 293.95 678.011 290.196C679.56 286.441 680.333 281.834 680.333 276.377ZM697.474 307.892V244.861H715.527C719.702 244.861 723.128 245.704 725.807 247.385C728.485 249.047 730.467 251.336 731.755 254.248C733.042 257.163 733.685 260.476 733.685 264.189C733.685 267.904 733.042 271.196 731.755 274.069C730.467 276.941 728.494 279.198 725.833 280.84C723.171 282.461 719.771 283.271 715.632 283.271H701.022V276.377H715.423C718.275 276.377 720.571 275.885 722.31 274.899C724.068 273.915 725.337 272.52 726.12 270.714C726.919 268.888 727.32 266.713 727.32 264.189C727.32 261.666 726.919 259.461 726.12 257.573C725.32 255.685 724.041 254.228 722.285 253.203C720.528 252.156 718.206 251.632 715.318 251.632H703.944V307.892H697.474ZM722.624 279.578L735.773 307.892H728.259L715.318 279.578H722.624ZM765.129 307.892V244.861H783.808C787.531 244.861 790.601 245.621 793.018 247.139C795.436 248.637 797.236 250.658 798.418 253.203C799.601 255.726 800.193 258.526 800.193 261.604C800.193 264.312 799.784 266.55 798.967 268.314C798.166 270.079 797.106 271.473 795.783 272.5C794.479 273.525 793.062 274.285 791.53 274.776V275.392C793.166 275.516 794.81 276.193 796.462 277.424C798.114 278.654 799.497 280.419 800.61 282.717C801.723 285.015 802.279 287.826 802.279 291.149C802.279 294.31 801.671 297.151 800.453 299.675C799.236 302.198 797.314 304.2 794.687 305.677C792.062 307.153 788.643 307.892 784.435 307.892H765.129ZM771.599 301.121H784.435C788.661 301.121 791.661 300.157 793.436 298.229C795.227 296.279 796.122 293.92 796.122 291.149C796.122 289.015 795.662 287.046 794.74 285.241C793.818 283.414 792.505 281.957 790.8 280.87C789.096 279.762 787.079 279.208 784.747 279.208H771.599V301.121ZM771.599 272.561H783.6C785.548 272.561 787.305 272.11 788.87 271.207C790.453 270.303 791.705 269.032 792.627 267.391C793.566 265.749 794.035 263.82 794.035 261.604C794.035 258.835 793.218 256.485 791.583 254.557C789.949 252.607 787.357 251.632 783.808 251.632H771.599V272.561ZM847.974 244.861H854.444V286.595C854.444 290.903 853.583 294.75 851.861 298.136C850.157 301.501 847.748 304.158 844.635 306.108C841.522 308.036 837.869 309 833.677 309C829.486 309 825.833 308.036 822.72 306.108C819.607 304.158 817.19 301.501 815.468 298.136C813.763 294.75 812.91 290.903 812.91 286.595V244.861H819.381V285.979C819.381 289.057 819.955 291.797 821.103 294.196C822.251 296.577 823.885 298.454 826.008 299.828C828.146 301.182 830.703 301.86 833.677 301.86C836.651 301.86 839.209 301.182 841.347 299.828C843.487 298.454 845.122 296.577 846.252 294.196C847.4 291.797 847.974 289.057 847.974 285.979V244.861ZM910.36 264.559H903.889C903.507 262.364 902.836 260.434 901.88 258.773C900.941 257.111 899.793 255.716 898.436 254.587C897.097 253.439 895.61 252.576 893.976 252.002C892.341 251.428 890.636 251.141 888.862 251.141C885.627 251.141 882.696 252.105 880.07 254.033C877.461 255.961 875.383 258.804 873.834 262.559C872.304 266.313 871.539 270.919 871.539 276.377C871.539 281.834 872.304 286.441 873.834 290.196C875.383 293.95 877.461 296.792 880.07 298.721C882.696 300.649 885.627 301.614 888.862 301.614C890.636 301.614 892.341 301.326 893.976 300.752C895.61 300.178 897.097 299.326 898.436 298.198C899.793 297.048 900.941 295.642 901.88 293.981C902.836 292.299 903.507 290.369 903.889 288.195H910.36C909.872 291.416 908.986 294.299 907.698 296.844C906.411 299.388 904.811 301.552 902.898 303.337C900.985 305.101 898.837 306.446 896.454 307.37C894.088 308.292 891.558 308.754 888.862 308.754C884.306 308.754 880.252 307.441 876.704 304.814C873.156 302.189 870.366 298.454 868.33 293.611C866.295 288.77 865.278 283.024 865.278 276.377C865.278 269.729 866.295 263.985 868.33 259.142C870.366 254.3 873.156 250.566 876.704 247.939C880.252 245.314 884.306 244 888.862 244C891.558 244 894.088 244.462 896.454 245.385C898.837 246.309 900.985 247.663 902.898 249.448C904.811 251.212 906.411 253.367 907.698 255.911C908.986 258.434 909.872 261.317 910.36 264.559ZM920.814 307.892V244.861H927.285V276.13H927.91L951.912 244.861H960.365L937.929 273.299L960.365 307.892H952.539L933.963 278.594L927.285 287.457V307.892H920.814ZM968.739 307.892V244.861H1000.99V251.632H975.205V272.93H999.312V279.701H975.205V301.121H1001.4V307.892H968.739ZM1009.72 251.632V244.861H1049.8V251.632H1032.99V307.892H1026.53V251.632H1009.72ZM1089 260.62C1088.69 257.501 1087.43 255.08 1085.2 253.356C1082.97 251.632 1080.24 250.771 1077 250.771C1074.64 250.771 1072.57 251.222 1070.79 252.125C1069.04 253.028 1067.66 254.269 1066.67 255.849C1065.7 257.429 1065.21 259.224 1065.21 261.235C1065.21 262.918 1065.55 264.364 1066.22 265.575C1066.92 266.765 1067.81 267.76 1068.89 268.559C1069.97 269.339 1071.1 269.985 1072.28 270.498C1073.47 270.991 1074.55 271.391 1075.54 271.7L1080.96 273.422C1082.36 273.854 1083.91 274.448 1085.61 275.208C1087.33 275.966 1088.97 277.002 1090.55 278.316C1092.12 279.609 1093.43 281.271 1094.45 283.302C1095.48 285.333 1096 287.826 1096 290.781C1096 294.187 1095.24 297.263 1093.73 300.014C1092.23 302.763 1090.04 304.948 1087.15 306.569C1084.28 308.19 1080.79 309 1076.69 309C1072.86 309 1069.55 308.271 1066.75 306.814C1063.96 305.359 1061.77 303.327 1060.17 300.721C1058.59 298.115 1057.69 295.089 1057.49 291.642H1064.17C1064.34 294.022 1065.02 295.992 1066.2 297.552C1067.41 299.09 1068.91 300.239 1070.75 300.998C1072.58 301.736 1074.57 302.106 1076.69 302.106C1079.16 302.106 1081.38 301.635 1083.34 300.691C1085.3 299.727 1086.86 298.393 1088.01 296.689C1089.16 294.965 1089.73 292.956 1089.73 290.658C1089.73 288.564 1089.24 286.862 1088.25 285.549C1087.25 284.235 1085.96 283.168 1084.34 282.347C1082.72 281.527 1080.96 280.809 1079.09 280.193L1072.51 277.977C1068.34 276.562 1065.04 274.541 1062.6 271.915C1060.16 269.288 1058.95 265.851 1058.95 261.604C1058.95 258.075 1059.76 254.997 1061.38 252.371C1063.01 249.724 1065.2 247.673 1067.95 246.215C1070.71 244.739 1073.8 244 1077.21 244C1080.65 244 1083.72 244.729 1086.39 246.186C1089.08 247.621 1091.19 249.591 1092.76 252.094C1094.35 254.598 1095.17 257.439 1095.27 260.62H1089Z" fill="#234982"/>
</svg>
